<svg xmlns="http://www.w3.org/2000/svg" xmlns:xlink="http://www.w3.org/1999/xlink" xmlns:lucid="lucid" width="1760" height="1360"><g transform="translate(0 0)" lucid:page-tab-id="0_0"><path d="M0 0h1760v1360H0z" fill="#fff"/><path d="M1032 320c26.5 0 48 17.9 48 40s-21.5 40-48 40H888c-26.5 0-48-17.9-48-40s21.5-40 48-40z" stroke="#000" stroke-opacity="0" stroke-width="3" fill="#ff741d"/><use xlink:href="#a" transform="matrix(1,0,0,1,845,325) translate(19.254069010416686 41.80501302083333)"/><use xlink:href="#b" transform="matrix(1,0,0,1,845,325) translate(85.19645182291667 41.80501302083333)"/><path d="M478.76 610.8c17.67 0 32 17.9 32 40s-14.33 40-32 40h-96c-17.67 0-32-17.9-32-40s14.33-40 32-40z" stroke="#fe5900" stroke-width="3" fill="#fff"/><use xlink:href="#c" transform="matrix(1,0,0,1,355.75827984728903,615.8049490723796) translate(49.19108072916668 41.19194878472222)"/><path d="M960 401.5v91.15a12 12 0 0 1-12 12H442.76a12 12 0 0 0-12 12v72.03" stroke="#3a414a" stroke-width="3" fill="none"/><path d="M961.5 401.54h-3V400h3z" stroke="#3a414a" stroke-width=".05" fill="#3a414a"/><path d="M430.76 604.45l-4.64-14.26h9.27z" stroke="#3a414a" stroke-width="3" fill="#3a414a"/><path d="M1488 607.65c17.67 0 32 17.9 32 40s-14.33 40-32 40h-96c-17.67 0-32-17.9-32-40s14.33-40 32-40z" stroke="#fe5900" stroke-width="3" fill="#fff"/><use xlink:href="#d" transform="matrix(1,0,0,1,1365,612.6522400498885) translate(28.176812065972236 41.191948784722214)"/><path d="M788 607.65c17.67 0 32 17.9 32 40s-14.33 40-32 40h-96c-17.67 0-32-17.9-32-40s14.33-40 32-40z" stroke="#fe5900" stroke-width="3" fill="#fff"/><use xlink:href="#e" transform="matrix(1,0,0,1,665,612.6522400498885) translate(41.00455729166668 41.191948784722214)"/><path d="M1188 607.65c17.67 0 32 17.9 32 40s-14.33 40-32 40h-96c-17.67 0-32-17.9-32-40s14.33-40 32-40z" stroke="#fe5900" stroke-width="3" fill="#fff"/><use xlink:href="#f" transform="matrix(1,0,0,1,1065,612.6522400498885) translate(49.23491753472223 41.191948784722214)"/><path d="M380.76 852.15c0 22.1-17.9 40-40 40s-40-17.9-40-40 17.9-40 40-40 40 17.9 40 40z" stroke="#fe5900" stroke-width="3" fill="#fff"/><use xlink:href="#g" transform="matrix(1,0,0,1,305.75827984728903,817.151771077286) translate(19.11252170138889 40.578884548611114)"/><path d="M550.76 852.15c0 22.1-17.9 40-40 40s-40-17.9-40-40 17.9-40 40-40 40 17.9 40 40z" stroke="#fe5900" stroke-width="3" fill="#fff"/><use xlink:href="#h" transform="matrix(1,0,0,1,475.75827984728903,817.151771077286) translate(21.768663194444446 40.578884548611114)"/><path d="M680 849c0 22.1-17.9 40-40 40s-40-17.9-40-40 17.9-40 40-40 40 17.9 40 40z" stroke="#fe5900" stroke-width="3" fill="#fff"/><use xlink:href="#g" transform="matrix(1,0,0,1,605,813.9990620547949) translate(19.11252170138889 40.578884548611114)"/><path d="M860 849c0 22.1-17.9 40-40 40s-40-17.9-40-40 17.9-40 40-40 40 17.9 40 40z" stroke="#fe5900" stroke-width="3" fill="#fff"/><use xlink:href="#h" transform="matrix(1,0,0,1,785,813.9990620547949) translate(21.768663194444446 40.578884548611114)"/><path d="M1100 849c0 22.1-17.9 40-40 40s-40-17.9-40-40 17.9-40 40-40 40 17.9 40 40z" stroke="#fe5900" stroke-width="3" fill="#fff"/><use xlink:href="#g" transform="matrix(1,0,0,1,1025,813.9990620547949) translate(19.11252170138889 40.578884548611114)"/><path d="M1260 849c0 22.1-17.9 40-40 40s-40-17.9-40-40 17.9-40 40-40 40 17.9 40 40z" stroke="#fe5900" stroke-width="3" fill="#fff"/><use xlink:href="#h" transform="matrix(1,0,0,1,1185,813.9990620547949) translate(21.768663194444446 40.578884548611114)"/><path d="M1400 849c0 22.1-17.9 40-40 40s-40-17.9-40-40 17.9-40 40-40 40 17.9 40 40z" stroke="#fe5900" stroke-width="3" fill="#fff"/><use xlink:href="#g" transform="matrix(1,0,0,1,1325,813.9990620547949) translate(19.11252170138889 40.578884548611114)"/><path d="M1560 849c0 22.1-17.9 40-40 40s-40-17.9-40-40 17.9-40 40-40 40 17.9 40 40z" stroke="#fe5900" stroke-width="3" fill="#fff"/><use xlink:href="#h" transform="matrix(1,0,0,1,1485,813.9990620547949) translate(21.768663194444446 40.578884548611114)"/><path d="M960 401.5v89.58a12 12 0 0 0 12 12h456a12 12 0 0 1 12 12v70.45" stroke="#3a414a" stroke-width="3" fill="none"/><path d="M961.5 401.54h-3V400h3z" stroke="#3a414a" stroke-width=".05" fill="#3a414a"/><path d="M1440 601.3l-4.64-14.27h9.28z" stroke="#3a414a" stroke-width="3" fill="#3a414a"/><path d="M830.76 588a8 8 0 0 1 8-8h224a8 8 0 0 1 8 8v60.93a8 8 0 0 1-8 8h-224a8 8 0 0 1-8-8z" fill="#fff" fill-opacity="0"/><path d="M832.26 588c0 .83-.67 1.5-1.5 1.5s-1.5-.67-1.5-1.5.67-1.5 1.5-1.5 1.5.67 1.5 1.5zm6.75-7.9c0 .83-.66 1.5-1.5 1.5-.82 0-1.5-.67-1.5-1.5s.68-1.5 1.5-1.5c.84 0 1.5.67 1.5 1.5zm11.86 0c0 .82-.67 1.5-1.5 1.5s-1.5-.68-1.5-1.5c0-.84.67-1.5 1.5-1.5s1.5.66 1.5 1.5zm11.86 0c0 .82-.67 1.5-1.5 1.5s-1.5-.68-1.5-1.5c0-.84.67-1.5 1.5-1.5s1.5.66 1.5 1.5zm11.85-.02c0 .83-.67 1.5-1.5 1.5s-1.5-.67-1.5-1.5.67-1.5 1.5-1.5 1.5.67 1.5 1.5zm11.86 0c0 .83-.67 1.5-1.5 1.5s-1.5-.67-1.5-1.5.67-1.5 1.5-1.5 1.5.67 1.5 1.5zm11.85 0c0 .82-.67 1.5-1.5 1.5-.82 0-1.5-.68-1.5-1.5 0-.84.68-1.5 1.5-1.5.83 0 1.5.66 1.5 1.5zm11.86 0c0 .82-.67 1.5-1.5 1.5s-1.5-.68-1.5-1.5c0-.84.67-1.5 1.5-1.5s1.5.66 1.5 1.5zm11.85-.02c0 .83-.68 1.5-1.5 1.5-.83 0-1.5-.67-1.5-1.5s.67-1.5 1.5-1.5c.82 0 1.5.67 1.5 1.5zm11.85 0c0 .83-.67 1.5-1.5 1.5s-1.5-.67-1.5-1.5.67-1.5 1.5-1.5 1.5.67 1.5 1.5zm11.85 0c0 .82-.67 1.5-1.5 1.5-.82 0-1.5-.68-1.5-1.5 0-.84.68-1.5 1.5-1.5.83 0 1.5.66 1.5 1.5zm11.86 0c0 .82-.67 1.5-1.5 1.5s-1.5-.68-1.5-1.5c0-.84.67-1.5 1.5-1.5s1.5.66 1.5 1.5zm11.86-.02c0 .83-.68 1.5-1.5 1.5-.83 0-1.5-.67-1.5-1.5s.67-1.5 1.5-1.5c.82 0 1.5.67 1.5 1.5zm11.85 0c0 .82-.67 1.5-1.5 1.5s-1.5-.68-1.5-1.5c0-.83.67-1.5 1.5-1.5s1.5.67 1.5 1.5zm11.86 0c0 .82-.68 1.5-1.5 1.5-.83 0-1.5-.68-1.5-1.5 0-.84.67-1.5 1.5-1.5.82 0 1.5.66 1.5 1.5zm11.85 0c0 .8-.67 1.5-1.5 1.5s-1.5-.7-1.5-1.5c0-.84.67-1.5 1.5-1.5s1.5.66 1.5 1.5zm11.86-.02c0 .83-.67 1.5-1.5 1.5s-1.5-.67-1.5-1.5.67-1.5 1.5-1.5 1.5.67 1.5 1.5zm11.85 0c0 .82-.68 1.5-1.5 1.5-.84 0-1.5-.68-1.5-1.5 0-.83.66-1.5 1.5-1.5.82 0 1.5.67 1.5 1.5zm11.85 0c0 .82-.67 1.5-1.5 1.5s-1.5-.68-1.5-1.5c0-.84.67-1.5 1.5-1.5s1.5.66 1.5 1.5zm11.85 0c0 .8-.67 1.5-1.5 1.5s-1.5-.7-1.5-1.5c0-.84.67-1.5 1.5-1.5s1.5.66 1.5 1.5zm11.86-.02c0 .83-.67 1.5-1.5 1.5s-1.5-.67-1.5-1.5.67-1.5 1.5-1.5 1.5.67 1.5 1.5zm7.9 6.75c0 .83-.67 1.5-1.5 1.5s-1.5-.67-1.5-1.5.67-1.5 1.5-1.5 1.5.67 1.5 1.5zm.02 12.44c0 .8-.67 1.5-1.5 1.5s-1.5-.7-1.5-1.5c0-.84.67-1.5 1.5-1.5s1.5.66 1.5 1.5zm.02 12.42c0 .83-.67 1.5-1.5 1.5s-1.5-.67-1.5-1.5.67-1.5 1.5-1.5 1.5.67 1.5 1.5zm.02 12.44c0 .83-.67 1.5-1.5 1.5s-1.5-.67-1.5-1.5.67-1.5 1.5-1.5 1.5.67 1.5 1.5zm.02 12.44c0 .82-.67 1.5-1.5 1.5s-1.5-.68-1.5-1.5c0-.83.67-1.5 1.5-1.5s1.5.67 1.5 1.5zm.02 12.43c0 .83-.67 1.5-1.5 1.5s-1.5-.67-1.5-1.5.67-1.5 1.5-1.5 1.5.67 1.5 1.5zm-6.75 7.9c0 .83-.66 1.5-1.5 1.5-.82 0-1.5-.67-1.5-1.5 0-.82.68-1.5 1.5-1.5.84 0 1.5.68 1.5 1.5zm-11.85 0c0 .84-.67 1.5-1.5 1.5-.82 0-1.5-.66-1.5-1.5 0-.82.68-1.5 1.5-1.5.83 0 1.5.68 1.5 1.5zm-11.85.02c0 .82-.67 1.5-1.5 1.5s-1.5-.68-1.5-1.5c0-.83.67-1.5 1.5-1.5s1.5.67 1.5 1.5zm-11.86 0c0 .83-.67 1.5-1.5 1.5-.82 0-1.5-.67-1.5-1.5s.68-1.5 1.5-1.5c.83 0 1.5.67 1.5 1.5zm-11.85 0c0 .83-.68 1.5-1.5 1.5-.84 0-1.5-.67-1.5-1.5 0-.82.66-1.5 1.5-1.5.82 0 1.5.68 1.5 1.5zm-11.87 0c0 .84-.67 1.5-1.5 1.5s-1.5-.66-1.5-1.5c0-.82.67-1.5 1.5-1.5s1.5.68 1.5 1.5zm-11.85.02c0 .82-.67 1.5-1.5 1.5s-1.5-.68-1.5-1.5c0-.83.67-1.5 1.5-1.5s1.5.67 1.5 1.5zm-11.86 0c0 .83-.67 1.5-1.5 1.5s-1.5-.67-1.5-1.5.67-1.5 1.5-1.5 1.5.67 1.5 1.5zm-11.85 0c0 .83-.67 1.5-1.5 1.5s-1.5-.67-1.5-1.5c0-.82.67-1.5 1.5-1.5s1.5.68 1.5 1.5zm-11.86 0c0 .84-.66 1.5-1.5 1.5-.82 0-1.5-.66-1.5-1.5 0-.82.68-1.5 1.5-1.5.84 0 1.5.68 1.5 1.5zm-11.84.02c0 .82-.68 1.5-1.5 1.5-.83 0-1.5-.68-1.5-1.5 0-.84.67-1.5 1.5-1.5.82 0 1.5.66 1.5 1.5zm-11.86 0c0 .82-.67 1.5-1.5 1.5s-1.5-.68-1.5-1.5c0-.84.67-1.5 1.5-1.5s1.5.66 1.5 1.5zm-11.85 0c0 .83-.68 1.5-1.5 1.5-.83 0-1.5-.67-1.5-1.5s.67-1.5 1.5-1.5c.82 0 1.5.67 1.5 1.5zm-11.86 0c0 .83-.68 1.5-1.5 1.5-.84 0-1.5-.67-1.5-1.5s.66-1.5 1.5-1.5c.82 0 1.5.67 1.5 1.5zm-11.87 0c0 .84-.67 1.5-1.5 1.5-.82 0-1.5-.66-1.5-1.5 0-.82.68-1.5 1.5-1.5.83 0 1.5.68 1.5 1.5zm-11.85 0c0 .84-.67 1.5-1.5 1.5s-1.5-.66-1.5-1.5c0-.82.67-1.5 1.5-1.5s1.5.68 1.5 1.5zm-11.86.02c0 .83-.67 1.5-1.5 1.5-.82 0-1.5-.67-1.5-1.5s.68-1.5 1.5-1.5c.83 0 1.5.67 1.5 1.5zm-11.85 0c0 .83-.67 1.5-1.5 1.5s-1.5-.67-1.5-1.5.67-1.5 1.5-1.5 1.5.67 1.5 1.5zm-11.86 0c0 .84-.66 1.5-1.5 1.5-.8 0-1.5-.66-1.5-1.5 0-.82.7-1.5 1.5-1.5.84 0 1.5.68 1.5 1.5zm-11.84 0c0 .84-.67 1.5-1.5 1.5s-1.5-.66-1.5-1.5c0-.82.67-1.5 1.5-1.5s1.5.68 1.5 1.5zm-7.9-6.74c0 .83-.67 1.5-1.5 1.5s-1.5-.67-1.5-1.5c0-.82.67-1.5 1.5-1.5s1.5.68 1.5 1.5zm-.02-12.43c0 .83-.67 1.5-1.5 1.5s-1.5-.67-1.5-1.5.67-1.5 1.5-1.5 1.5.67 1.5 1.5zm-.02-12.44c0 .84-.67 1.5-1.5 1.5s-1.5-.66-1.5-1.5c0-.82.67-1.5 1.5-1.5s1.5.68 1.5 1.5zm-.02-12.43c0 .83-.67 1.5-1.5 1.5s-1.5-.67-1.5-1.5c0-.82.67-1.5 1.5-1.5s1.5.68 1.5 1.5zm-.02-12.43c0 .83-.67 1.5-1.5 1.5s-1.5-.67-1.5-1.5.67-1.5 1.5-1.5 1.5.67 1.5 1.5z" fill-opacity="0"/><use xlink:href="#i" transform="matrix(1,0,0,1,835.7582798472891,585) translate(40.852050781250114 48.887912326388864)"/><use xlink:href="#j" transform="matrix(1,0,0,1,835.7582798472891,585) translate(106.62516276041669 48.887912326388864)"/><use xlink:href="#k" transform="matrix(1,0,0,1,835.7582798472891,585) translate(172.39827473958326 48.887912326388864)"/><path d="M960 401.5v89.58a12 12 0 0 1-12 12H752a12 12 0 0 0-12 12v70.45" stroke="#3a414a" stroke-width="3" fill="none"/><path d="M961.5 401.54h-3V400h3z" stroke="#3a414a" stroke-width=".05" fill="#3a414a"/><path d="M740 601.3l-4.64-14.27h9.28z" stroke="#3a414a" stroke-width="3" fill="#3a414a"/><path d="M960 401.5v89.58a12 12 0 0 0 12 12h156a12 12 0 0 1 12 12v70.45" stroke="#3a414a" stroke-width="3" fill="none"/><path d="M961.5 401.54h-3V400h3z" stroke="#3a414a" stroke-width=".05" fill="#3a414a"/><path d="M1140 601.3l-4.64-14.27h9.28z" stroke="#3a414a" stroke-width="3" fill="#3a414a"/><path d="M430.76 693.8v45.76a12 12 0 0 1-12 12H355.3a12 12 0 0 0-12 12v26.63" stroke="#3a414a" stroke-width="3" fill="none"/><path d="M432.26 693.84h-3v-1.54h3z" stroke="#3a414a" stroke-width=".05" fill="#3a414a"/><path d="M343.3 805.95l-4.62-14.26h9.27z" stroke="#3a414a" stroke-width="3" fill="#3a414a"/><path d="M430.76 693.8v45.72a12 12 0 0 0 12 12h53.38a12 12 0 0 1 12 12v26.6" stroke="#3a414a" stroke-width="3" fill="none"/><path d="M432.26 693.84h-3v-1.54h3z" stroke="#3a414a" stroke-width=".05" fill="#3a414a"/><path d="M508.14 805.9l-4.64-14.28h9.27z" stroke="#3a414a" stroke-width="3" fill="#3a414a"/><path d="M740 690.65v46.68a12 12 0 0 1-12 12h-63.45a12 12 0 0 0-12 12v27.56" stroke="#3a414a" stroke-width="3" fill="none"/><path d="M741.5 690.7h-3v-1.55h3z" stroke="#3a414a" stroke-width=".05" fill="#3a414a"/><path d="M652.55 804.66l-4.63-14.27h9.27z" stroke="#3a414a" stroke-width="3" fill="#3a414a"/><path d="M740 690.65v45.72a12 12 0 0 0 12 12h53.38a12 12 0 0 1 12 12v26.6" stroke="#3a414a" stroke-width="3" fill="none"/><path d="M741.5 690.7h-3v-1.55h3z" stroke="#3a414a" stroke-width=".05" fill="#3a414a"/><path d="M817.38 802.74l-4.64-14.27h9.28z" stroke="#3a414a" stroke-width="3" fill="#3a414a"/><path d="M1140 690.65v45.68a12 12 0 0 1-12 12h-55.95a12 12 0 0 0-12 12v26.55" stroke="#3a414a" stroke-width="3" fill="none"/><path d="M1141.5 690.7h-3v-1.55h3z" stroke="#3a414a" stroke-width=".05" fill="#3a414a"/><path d="M1060.05 802.64l-4.64-14.26h9.28z" stroke="#3a414a" stroke-width="3" fill="#3a414a"/><path d="M1140 690.65v45.68a12 12 0 0 0 12 12h56a12 12 0 0 1 12 12v26.55" stroke="#3a414a" stroke-width="3" fill="none"/><path d="M1141.5 690.7h-3v-1.55h3z" stroke="#3a414a" stroke-width=".05" fill="#3a414a"/><path d="M1220 802.64l-4.64-14.26h9.28z" stroke="#3a414a" stroke-width="3" fill="#3a414a"/><path d="M1440 690.65v45.68a12 12 0 0 1-12 12h-56a12 12 0 0 0-12 12v26.55" stroke="#3a414a" stroke-width="3" fill="none"/><path d="M1441.5 690.7h-3v-1.55h3z" stroke="#3a414a" stroke-width=".05" fill="#3a414a"/><path d="M1360 802.64l-4.64-14.26h9.28z" stroke="#3a414a" stroke-width="3" fill="#3a414a"/><path d="M1440 690.65v45.68a12 12 0 0 0 12 12h56a12 12 0 0 1 12 12v26.55" stroke="#3a414a" stroke-width="3" fill="none"/><path d="M1441.5 690.7h-3v-1.55h3z" stroke="#3a414a" stroke-width=".05" fill="#3a414a"/><path d="M1520 802.64l-4.64-14.26h9.28z" stroke="#3a414a" stroke-width="3" fill="#3a414a"/><path d="M130.76 765a8 8 0 0 1 8-8h124a8 8 0 0 1 8 8v97.6a8 8 0 0 1-8 8h-124a8 8 0 0 1-8-8z" fill="none"/><path d="M270.76 870.6c-5.52 0-10-4.5-10-10v-36.8c0-5.54-4.48-10-10-10 5.52 0 10-4.5 10-10V767c0-5.54 4.48-10 10-10" stroke="#3a414a" stroke-width="3" fill="none"/><use xlink:href="#l" transform="matrix(1,0,0,1,135.75827984728903,761.985104410619) translate(-7.311143663194429 58.191948784722214)"/><path d="M190.76 549.62a8 8 0 0 1 8-8h64a8 8 0 0 1 8 8v144a8 8 0 0 1-8 8h-64a8 8 0 0 1-8-8z" fill="none"/><path d="M270.76 701.62c-5.52 0-10-4.48-10-10v-60c0-5.52-4.48-10-10-10 5.52 0 10-4.48 10-10v-60c0-5.52 4.48-10 10-10" stroke="#3a414a" stroke-width="3" fill="none"/><g><use xlink:href="#m" transform="matrix(1,0,0,1,195.75827984728903,546.6193756891577) translate(-13.606391059027771 70.068359375)"/><use xlink:href="#n" transform="matrix(1,0,0,1,195.75827984728903,546.6193756891577) translate(-15.677680121527771 92.31553819444444)"/></g><defs><path fill="#fff" d="M750-1295c-235 0-357 269-357 551 0 242 64 406 189 495 115 82 270 77 380-7v-383H663v-213h557v693C1004 37 655 95 402-79 224-202 101-447 102-744s130-540 310-667c233-164 595-116 777 70l-135 170c-93-83-195-124-304-124" id="o"/><path fill="#fff" d="M94-548c0-302 191-568 483-568 311 0 493 270 482 633H370c7 207 93 311 256 311 93 0 196-46 308-137l103 144C907-40 760 22 595 22 293 22 94-237 94-548zm282-120h403c-18-170-85-255-202-255s-184 85-201 255" id="p"/><path fill="#fff" d="M783-1116c173 0 283 89 283 264V0H803v-754c0-92-46-138-139-138-73 0-151 30-233 91V0H168v-1094h263v93c117-77 234-115 352-115" id="q"/><g id="a"><use transform="matrix(0.01204427083333333,0,0,0.01204427083333333,0,0)" xlink:href="#o"/><use transform="matrix(0.01204427083333333,0,0,0.01204427083333333,16.247721354166664,0)" xlink:href="#p"/><use transform="matrix(0.01204427083333333,0,0,0.01204427083333333,30.134765624999993,0)" xlink:href="#q"/><use transform="matrix(0.01204427083333333,0,0,0.01204427083333333,44.82877604166666,0)" xlink:href="#p"/></g><path fill="#fff" d="M1064-219V0H205v-1489h859v219H478v389h485v219H478v443h586" id="r"/><path fill="#fff" d="M1037-1094L712-596 1113 0H816L559-408 303 0H25l393-596-336-498h296l191 307 190-307h278" id="s"/><path fill="#fff" d="M690-1116c279 0 423 232 423 527 0 261-67 439-196 539C782 54 551 41 431-69v481H168v-1506h253v93c71-77 160-115 269-115zM431-810v545c64 56 127 84 189 84 145 0 218-134 218-402 0-214-68-321-203-321-71 0-139 31-204 94" id="t"/><path fill="#fff" d="M431-770V0H168v-1094h263v110c156-133 232-175 396-74l-84 220c-129-52-218-25-312 68" id="u"/><path fill="#fff" d="M925-326c0 213-197 348-437 348C341 22 194-16 47-93l93-183c121 69 236 103 345 103s164-42 164-127c0-41-24-75-72-100-19-10-61-25-126-44-165-49-270-109-315-179-27-41-40-94-40-158 0-210 193-335 432-335 111 0 229 34 354 103l-83 176c-101-56-191-84-271-84-107 0-161 40-161 121 0 37 23 66 70 89 16 12 285 99 327 123 105 60 161 144 161 262" id="v"/><path fill="#fff" d="M431-1094V0H168v-1094h263zm0-190H168v-296h263v296" id="w"/><path fill="#fff" d="M578-1116c196 0 337 93 423 279 40 87 60 183 60 290 0 225-77 390-230 494-74 50-158 75-253 75-197 0-338-93-424-279-40-87-60-183-60-290 0-226 77-391 231-495 73-49 158-74 253-74zm0 194c-139 0-208 125-208 375s69 375 208 375c138 0 207-125 207-375s-69-375-207-375" id="x"/><g id="b"><use transform="matrix(0.01204427083333333,0,0,0.01204427083333333,0,0)" xlink:href="#r"/><use transform="matrix(0.01204427083333333,0,0,0.01204427083333333,14.055664062499996,0)" xlink:href="#s"/><use transform="matrix(0.01204427083333333,0,0,0.01204427083333333,27.762044270833325,0)" xlink:href="#t"/><use transform="matrix(0.01204427083333333,0,0,0.01204427083333333,42.29947916666666,0)" xlink:href="#u"/><use transform="matrix(0.01204427083333333,0,0,0.01204427083333333,51.65787760416666,0)" xlink:href="#p"/><use transform="matrix(0.01204427083333333,0,0,0.01204427083333333,65.54492187499999,0)" xlink:href="#v"/><use transform="matrix(0.01204427083333333,0,0,0.01204427083333333,77.63736979166666,0)" xlink:href="#v"/><use transform="matrix(0.01204427083333333,0,0,0.01204427083333333,89.72981770833331,0)" xlink:href="#w"/><use transform="matrix(0.01204427083333333,0,0,0.01204427083333333,96.94433593749999,0)" xlink:href="#x"/><use transform="matrix(0.01204427083333333,0,0,0.01204427083333333,110.85546875,0)" xlink:href="#q"/></g><path fill="#333" d="M1019-219V0H205v-1489h273v1270h541" id="y"/><path fill="#333" d="M431-1094V0H168v-1094h263zm0-190H168v-296h263v296" id="z"/><path fill="#333" d="M452 0L25-1094h272l252 709 263-709h249L634 0H452" id="A"/><path fill="#333" d="M94-548c0-302 191-568 483-568 311 0 493 270 482 633H370c7 207 93 311 256 311 93 0 196-46 308-137l103 144C907-40 760 22 595 22 293 22 94-237 94-548zm282-120h403c-18-170-85-255-202-255s-184 85-201 255" id="B"/><path fill="#333" d="M431-770V0H168v-1094h263v110c156-133 232-175 396-74l-84 220c-129-52-218-25-312 68" id="C"/><g id="c"><use transform="matrix(0.010959201388888885,0,0,0.010959201388888885,0,0)" xlink:href="#y"/><use transform="matrix(0.010959201388888885,0,0,0.010959201388888885,11.550998263888884,0)" xlink:href="#z"/><use transform="matrix(0.010959201388888885,0,0,0.010959201388888885,18.115559895833325,0)" xlink:href="#A"/><use transform="matrix(0.010959201388888885,0,0,0.010959201388888885,30.017252604166654,0)" xlink:href="#B"/><use transform="matrix(0.010959201388888885,0,0,0.010959201388888885,42.653211805555536,0)" xlink:href="#C"/></g><path fill="#333" d="M205-1489h426c365 0 548 153 548 458S998-573 635-573H478V0H205v-1489zm273 219v478h161c177 0 265-80 265-239s-88-239-265-239H478" id="D"/><path fill="#333" d="M711-687c-7-170-35-229-188-230-74 0-147 18-220 53l-88-179c111-51 229-76 353-76 303 0 405 148 405 459V0H717v-81C651-13 566 21 461 21 236 21 81-120 81-346c0-158 85-260 254-311 103-31 245-40 376-30zM326-329c0 101 84 155 189 155 91 0 157-36 196-109v-226c-23-4-49-6-78-6-205 0-307 62-307 186" id="E"/><path fill="#333" d="M783-1116c173 0 283 89 283 264V0H803v-754c0-92-46-138-139-138-73 0-151 30-233 91V0H168v-1094h263v93c117-77 234-115 352-115" id="F"/><path fill="#333" d="M94-547c0-294 207-569 494-569 131 0 260 50 386 150L872-811c-96-74-188-111-277-112-163-2-225 186-225 376 0 251 82 377 246 377 81 0 168-36 260-107l103 137C862-32 733 22 593 22 292 22 94-208 94-547" id="G"/><path fill="#333" d="M925-326c0 213-197 348-437 348C341 22 194-16 47-93l93-183c121 69 236 103 345 103s164-42 164-127c0-41-24-75-72-100-19-10-61-25-126-44-165-49-270-109-315-179-27-41-40-94-40-158 0-210 193-335 432-335 111 0 229 34 354 103l-83 176c-101-56-191-84-271-84-107 0-161 40-161 121 0 37 23 66 70 89 16 12 285 99 327 123 105 60 161 144 161 262" id="H"/><g id="d"><use transform="matrix(0.010959201388888886,0,0,0.010959201388888886,0,0)" xlink:href="#D"/><use transform="matrix(0.010959201388888886,0,0,0.010959201388888886,12.69075520833333,0)" xlink:href="#E"/><use transform="matrix(0.010959201388888886,0,0,0.010959201388888886,25.041775173611104,0)" xlink:href="#F"/><use transform="matrix(0.010959201388888886,0,0,0.010959201388888886,38.41200086805555,0)" xlink:href="#G"/><use transform="matrix(0.010959201388888886,0,0,0.010959201388888886,49.141059027777764,0)" xlink:href="#C"/><use transform="matrix(0.010959201388888886,0,0,0.010959201388888886,57.65635850694443,0)" xlink:href="#B"/><use transform="matrix(0.010959201388888886,0,0,0.010959201388888886,70.29231770833331,0)" xlink:href="#E"/><use transform="matrix(0.010959201388888886,0,0,0.010959201388888886,82.64333767361109,0)" xlink:href="#H"/></g><path fill="#333" d="M919-805c192 25 318 168 317 382 0 282-182 423-545 423H205v-1489h394c214 0 356 50 427 149 39 55 59 132 59 229 0 134-55 236-166 306zM695-219c182-5 263-51 263-220 0-149-88-223-263-223H478v443h217zM478-881h163c121 0 181-69 181-207 0-121-70-182-211-182H478v389" id="I"/><path fill="#333" d="M503-384c-2 129 8 204 107 204 41 0 91-13 150-38l66 171C737-1 639 22 533 22c-230-2-293-122-293-358v-559H42v-199h198v-395h263v395h265v199H503v511" id="J"/><g id="e"><use transform="matrix(0.010959201388888886,0,0,0.010959201388888886,0,0)" xlink:href="#I"/><use transform="matrix(0.010959201388888886,0,0,0.010959201388888886,14.630533854166663,0)" xlink:href="#C"/><use transform="matrix(0.010959201388888886,0,0,0.010959201388888886,23.14583333333333,0)" xlink:href="#B"/><use transform="matrix(0.010959201388888886,0,0,0.010959201388888886,35.781792534722214,0)" xlink:href="#E"/><use transform="matrix(0.010959201388888886,0,0,0.010959201388888886,48.132812499999986,0)" xlink:href="#H"/><use transform="matrix(0.010959201388888886,0,0,0.010959201388888886,59.13585069444443,0)" xlink:href="#J"/></g><path fill="#333" d="M437 22c-177 0-283-91-283-265v-851h263v755c0 91 46 137 139 137 75 0 152-32 233-95v-797h263V0H789v-93C670-16 552 22 437 22" id="K"/><path fill="#333" d="M1040 13c1 285-186 425-480 425-155 0-288-42-397-127l107-153c86 57 175 86 266 86 162 0 243-86 243-258v-81C700-18 607 20 498 20c-167 0-286-84-355-253-33-79-49-170-49-272 0-252 66-428 193-533 131-108 361-101 490 7v-64h263V13zM777-276v-551c-65-56-128-84-191-84-145 0-217 133-217 399 0 214 67 321 202 321 71 0 139-28 206-85" id="L"/><g id="f"><use transform="matrix(0.010959201388888886,0,0,0.010959201388888886,0,0)" xlink:href="#y"/><use transform="matrix(0.010959201388888886,0,0,0.010959201388888886,11.550998263888886,0)" xlink:href="#K"/><use transform="matrix(0.010959201388888886,0,0,0.010959201388888886,24.92122395833333,0)" xlink:href="#F"/><use transform="matrix(0.010959201388888886,0,0,0.010959201388888886,38.29144965277777,0)" xlink:href="#L"/></g><path fill="#333" d="M495 0v-578L27-1489h291l317 627 320-627h279L767-578V0H495" id="M"/><g id="g"><use transform="matrix(0.009874131944444444,0,0,0.009874131944444444,0,0)" xlink:href="#M"/><use transform="matrix(0.009874131944444444,0,0,0.009874131944444444,10.476453993055555,0)" xlink:href="#B"/><use transform="matrix(0.009874131944444444,0,0,0.009874131944444444,21.861328125,0)" xlink:href="#H"/></g><path fill="#333" d="M205 0v-1489h295l553 1011v-1011h267V0h-290L472-1024V0H205" id="N"/><path fill="#333" d="M578-1116c196 0 337 93 423 279 40 87 60 183 60 290 0 225-77 390-230 494-74 50-158 75-253 75-197 0-338-93-424-279-40-87-60-183-60-290 0-226 77-391 231-495 73-49 158-74 253-74zm0 194c-139 0-208 125-208 375s69 375 208 375c138 0 207-125 207-375s-69-375-207-375" id="O"/><g id="h"><use transform="matrix(0.009874131944444444,0,0,0.009874131944444444,0,0)" xlink:href="#N"/><use transform="matrix(0.009874131944444444,0,0,0.009874131944444444,15.058051215277777,0)" xlink:href="#O"/></g><path fill="#3a414a" d="M452 0H163v-278h289V0" id="P"/><use transform="matrix(0.027235243055555514,0,0,0.027235243055555514,0,0)" xlink:href="#P" id="i"/><use transform="matrix(0.027235243055555514,0,0,0.027235243055555514,0,0)" xlink:href="#P" id="j"/><use transform="matrix(0.027235243055555514,0,0,0.027235243055555514,0,0)" xlink:href="#P" id="k"/><path fill="#3a414a" d="M582-1489l334 833 329-833h295L1695 0h-278l-102-1047-287 738H798l-298-738L397 0H130l154-1489h298" id="Q"/><path fill="#3a414a" d="M94-548c0-302 191-568 483-568 311 0 493 270 482 633H370c7 207 93 311 256 311 93 0 196-46 308-137l103 144C907-40 760 22 595 22 293 22 94-237 94-548zm282-120h403c-18-170-85-255-202-255s-184 85-201 255" id="R"/><path fill="#3a414a" d="M503-384c-2 129 8 204 107 204 41 0 91-13 150-38l66 171C737-1 639 22 533 22c-230-2-293-122-293-358v-559H42v-199h198v-395h263v395h265v199H503v511" id="S"/><path fill="#3a414a" d="M711-687c-7-170-35-229-188-230-74 0-147 18-220 53l-88-179c111-51 229-76 353-76 303 0 405 148 405 459V0H717v-81C651-13 566 21 461 21 236 21 81-120 81-346c0-158 85-260 254-311 103-31 245-40 376-30zM326-329c0 101 84 155 189 155 91 0 157-36 196-109v-226c-23-4-49-6-78-6-205 0-307 62-307 186" id="T"/><path fill="#3a414a" d="M925-326c0 213-197 348-437 348C341 22 194-16 47-93l93-183c121 69 236 103 345 103s164-42 164-127c0-41-24-75-72-100-19-10-61-25-126-44-165-49-270-109-315-179-27-41-40-94-40-158 0-210 193-335 432-335 111 0 229 34 354 103l-83 176c-101-56-191-84-271-84-107 0-161 40-161 121 0 37 23 66 70 89 16 12 285 99 327 123 105 60 161 144 161 262" id="U"/><path fill="#3a414a" d="M431-1094V0H168v-1094h263zm0-190H168v-296h263v296" id="V"/><g id="l"><use transform="matrix(0.010959201388888886,0,0,0.010959201388888886,0,0)" xlink:href="#Q"/><use transform="matrix(0.010959201388888886,0,0,0.010959201388888886,20.000542534722218,0)" xlink:href="#R"/><use transform="matrix(0.010959201388888886,0,0,0.010959201388888886,32.6365017361111,0)" xlink:href="#S"/><use transform="matrix(0.010959201388888886,0,0,0.010959201388888886,41.49153645833332,0)" xlink:href="#T"/><use transform="matrix(0.010959201388888886,0,0,0.010959201388888886,53.8425564236111,0)" xlink:href="#U"/><use transform="matrix(0.010959201388888886,0,0,0.010959201388888886,64.84559461805554,0)" xlink:href="#S"/><use transform="matrix(0.010959201388888886,0,0,0.010959201388888886,73.70062934027776,0)" xlink:href="#T"/><use transform="matrix(0.010959201388888886,0,0,0.010959201388888886,86.05164930555553,0)" xlink:href="#U"/><use transform="matrix(0.010959201388888886,0,0,0.010959201388888886,97.05468749999997,0)" xlink:href="#V"/><use transform="matrix(0.010959201388888886,0,0,0.010959201388888886,103.61924913194441,0)" xlink:href="#U"/></g><path fill="#3a414a" d="M45-1270v-219h1063v219H713V0H440v-1270H45" id="W"/><path fill="#3a414a" d="M437 22c-177 0-283-91-283-265v-851h263v755c0 91 46 137 139 137 75 0 152-32 233-95v-797h263V0H789v-93C670-16 552 22 437 22" id="X"/><g id="m"><use transform="matrix(0.010959201388888886,0,0,0.010959201388888886,0,0)" xlink:href="#W"/><use transform="matrix(0.010959201388888886,0,0,0.010959201388888886,12.635959201388886,0)" xlink:href="#V"/><use transform="matrix(0.010959201388888886,0,0,0.010959201388888886,19.20052083333333,0)" xlink:href="#U"/><use transform="matrix(0.010959201388888886,0,0,0.010959201388888886,30.20355902777777,0)" xlink:href="#U"/><use transform="matrix(0.010959201388888886,0,0,0.010959201388888886,41.206597222222214,0)" xlink:href="#X"/><use transform="matrix(0.010959201388888886,0,0,0.010959201388888886,54.57682291666666,0)" xlink:href="#R"/></g><path fill="#3a414a" d="M183-342c139 97 272 144 401 141 177-5 266-73 266-205 0-83-46-143-137-186-66-31-351-127-423-171-120-74-184-178-184-324 0-181 82-309 250-380 237-100 547-49 724 90l-107 195c-117-70-238-105-361-105-149 0-223 63-223 189 0 81 64 140 191 179 19 5 54 16 105 32 192 62 321 144 388 246 41 63 61 141 61 234 0 173-87 302-265 376C603 79 286 20 77-135" id="Y"/><path fill="#3a414a" d="M578-1116c196 0 337 93 423 279 40 87 60 183 60 290 0 225-77 390-230 494-74 50-158 75-253 75-197 0-338-93-424-279-40-87-60-183-60-290 0-226 77-391 231-495 73-49 158-74 253-74zm0 194c-139 0-208 125-208 375s69 375 208 375c138 0 207-125 207-375s-69-375-207-375" id="Z"/><path fill="#3a414a" d="M431-770V0H168v-1094h263v110c156-133 232-175 396-74l-84 220c-129-52-218-25-312 68" id="aa"/><path fill="#3a414a" d="M94-547c0-294 207-569 494-569 131 0 260 50 386 150L872-811c-96-74-188-111-277-112-163-2-225 186-225 376 0 251 82 377 246 377 81 0 168-36 260-107l103 137C862-32 733 22 593 22 292 22 94-208 94-547" id="ab"/><g id="n"><use transform="matrix(0.010959201388888886,0,0,0.010959201388888886,0,0)" xlink:href="#Y"/><use transform="matrix(0.010959201388888886,0,0,0.010959201388888886,13.446940104166664,0)" xlink:href="#Z"/><use transform="matrix(0.010959201388888886,0,0,0.010959201388888886,26.10481770833333,0)" xlink:href="#X"/><use transform="matrix(0.010959201388888886,0,0,0.010959201388888886,39.47504340277777,0)" xlink:href="#aa"/><use transform="matrix(0.010959201388888886,0,0,0.010959201388888886,47.990342881944436,0)" xlink:href="#ab"/><use transform="matrix(0.010959201388888886,0,0,0.010959201388888886,58.71940104166665,0)" xlink:href="#R"/></g></defs></g></svg>