<?xml version="1.0" encoding="UTF-8" standalone="no"?>
<svg
   width="1760"
   height="1360"
   version="1.1"
   id="svg1139"
   sodipodi:docname="Metastasis.svg"
   inkscape:version="1.2.1 (9c6d41e4, 2022-07-14)"
   xmlns:inkscape="http://www.inkscape.org/namespaces/inkscape"
   xmlns:sodipodi="http://sodipodi.sourceforge.net/DTD/sodipodi-0.dtd"
   xmlns:xlink="http://www.w3.org/1999/xlink"
   xmlns="http://www.w3.org/2000/svg"
   xmlns:svg="http://www.w3.org/2000/svg"
   xmlns:lucid="lucid">
  <defs
     id="defs1143">
    <clipPath
       clipPathUnits="userSpaceOnUse"
       id="clipPath1312">
      <rect
         style="fill:#0000ff;fill-rule:evenodd"
         id="rect1314"
         width="1762"
         height="688"
         x="-2"
         y="258" />
    </clipPath>
  </defs>
  <sodipodi:namedview
     id="namedview1141"
     pagecolor="#ffffff"
     bordercolor="#666666"
     borderopacity="1.0"
     inkscape:showpageshadow="2"
     inkscape:pageopacity="0.0"
     inkscape:pagecheckerboard="0"
     inkscape:deskcolor="#d1d1d1"
     showgrid="false"
     inkscape:zoom="0.5"
     inkscape:cx="882"
     inkscape:cy="680"
     inkscape:window-width="1440"
     inkscape:window-height="900"
     inkscape:window-x="0"
     inkscape:window-y="74"
     inkscape:window-maximized="0"
     inkscape:current-layer="svg1139" />
  <g
     transform="translate(0 0)"
     lucid:page-tab-id="0_0"
     id="g1137"
     clip-path="url(#clipPath1312)">
    <path
       d="M0 0h1760v1360H0z"
       fill="#fff"
       id="path799" />
    <path
       d="M1028 306.75c17.67 0 32 17.9 32 40s-14.33 40-32 40h-96c-17.67 0-32-17.9-32-40s14.33-40 32-40z"
       stroke="#000"
       stroke-opacity="0"
       stroke-width="3"
       fill="#ff741d"
       id="path801" />
    <use
       xlink:href="#a"
       transform="matrix(1,0,0,1,905.0000000000005,311.75000000004934) translate(45.64208984375001 29.580078125)"
       id="use803" />
    <use
       xlink:href="#b"
       transform="matrix(1,0,0,1,905.0000000000005,311.75000000004934) translate(12.225260416666679 54.02994791666666)"
       id="use805" />
    <path
       d="M368 607.65c17.67 0 32 17.9 32 40s-14.33 40-32 40h-96c-17.67 0-32-17.9-32-40s14.33-40 32-40z"
       stroke="#fe5900"
       stroke-width="3"
       fill="#fff"
       id="path807" />
    <use
       xlink:href="#c"
       transform="matrix(1,0,0,1,245,612.6522400498885) translate(49.19108072916668 41.19194878472222)"
       id="use809" />
    <path
       d="M980 388.25v96.2a12 12 0 0 1-12 12H332a12 12 0 0 0-12 12v77.08"
       stroke="#3a414a"
       stroke-width="3"
       fill="none"
       id="path811" />
    <path
       d="M981.5 388.3h-3v-1.55h3z"
       stroke="#3a414a"
       stroke-width=".05"
       fill="#3a414a"
       id="path813" />
    <path
       d="M320 601.3l-4.64-14.27h9.28z"
       stroke="#3a414a"
       stroke-width="3"
       fill="#3a414a"
       id="path815" />
    <path
       d="M1628 607.65c17.67 0 32 17.9 32 40s-14.33 40-32 40h-96c-17.67 0-32-17.9-32-40s14.33-40 32-40z"
       stroke="#fe5900"
       stroke-width="3"
       fill="#fff"
       id="path817" />
    <use
       xlink:href="#d"
       transform="matrix(1,0,0,1,1505,612.6522400498885) translate(28.176812065972236 41.191948784722214)"
       id="use819" />
    <path
       d="M708 607.65c17.67 0 32 17.9 32 40s-14.33 40-32 40h-96c-17.67 0-32-17.9-32-40s14.33-40 32-40z"
       stroke="#fe5900"
       stroke-width="3"
       fill="#fff"
       id="path821" />
    <use
       xlink:href="#e"
       transform="matrix(1,0,0,1,585,612.6522400498885) translate(41.00455729166668 41.191948784722214)"
       id="use823" />
    <path
       d="M1268 607.65c17.67 0 32 17.9 32 40s-14.33 40-32 40h-96c-17.67 0-32-17.9-32-40s14.33-40 32-40z"
       stroke="#fe5900"
       stroke-width="3"
       fill="#fff"
       id="path825" />
    <use
       xlink:href="#f"
       transform="matrix(1,0,0,1,1145,612.6522400498885) translate(49.23491753472223 41.191948784722214)"
       id="use827" />
    <path
       d="M270 849c0 22.1-17.9 40-40 40s-40-17.9-40-40 17.9-40 40-40 40 17.9 40 40z"
       stroke="#fe5900"
       stroke-width="3"
       fill="#fff"
       id="path829" />
    <use
       xlink:href="#g"
       transform="matrix(1,0,0,1,195,813.9990620547949) translate(19.11252170138889 40.578884548611114)"
       id="use831" />
    <path
       d="M440 849c0 22.1-17.9 40-40 40s-40-17.9-40-40 17.9-40 40-40 40 17.9 40 40z"
       stroke="#fe5900"
       stroke-width="3"
       fill="#fff"
       id="path833" />
    <use
       xlink:href="#h"
       transform="matrix(1,0,0,1,365,813.9990620547949) translate(21.768663194444446 40.578884548611114)"
       id="use835" />
    <path
       d="M600 849c0 22.1-17.9 40-40 40s-40-17.9-40-40 17.9-40 40-40 40 17.9 40 40z"
       stroke="#fe5900"
       stroke-width="3"
       fill="#fff"
       id="path837" />
    <use
       xlink:href="#g"
       transform="matrix(1,0,0,1,525,813.9990620547949) translate(19.11252170138889 40.578884548611114)"
       id="use839" />
    <path
       d="M780 849c0 22.1-17.9 40-40 40s-40-17.9-40-40 17.9-40 40-40 40 17.9 40 40z"
       stroke="#fe5900"
       stroke-width="3"
       fill="#fff"
       id="path841" />
    <use
       xlink:href="#h"
       transform="matrix(1,0,0,1,705,813.9990620547949) translate(21.768663194444446 40.578884548611114)"
       id="use843" />
    <path
       d="M1180 849c0 22.1-17.9 40-40 40s-40-17.9-40-40 17.9-40 40-40 40 17.9 40 40z"
       stroke="#fe5900"
       stroke-width="3"
       fill="#fff"
       id="path845" />
    <use
       xlink:href="#g"
       transform="matrix(1,0,0,1,1105,813.9990620547949) translate(19.11252170138889 40.578884548611114)"
       id="use847" />
    <path
       d="M1340 849c0 22.1-17.9 40-40 40s-40-17.9-40-40 17.9-40 40-40 40 17.9 40 40z"
       stroke="#fe5900"
       stroke-width="3"
       fill="#fff"
       id="path849" />
    <use
       xlink:href="#h"
       transform="matrix(1,0,0,1,1265,813.9990620547949) translate(21.768663194444446 40.578884548611114)"
       id="use851" />
    <path
       d="M1540 849c0 22.1-17.9 40-40 40s-40-17.9-40-40 17.9-40 40-40 40 17.9 40 40z"
       stroke="#fe5900"
       stroke-width="3"
       fill="#fff"
       id="path853" />
    <use
       xlink:href="#g"
       transform="matrix(1,0,0,1,1465,813.9990620547949) translate(19.11252170138889 40.578884548611114)"
       id="use855" />
    <path
       d="M1700 849c0 22.1-17.9 40-40 40s-40-17.9-40-40 17.9-40 40-40 40 17.9 40 40z"
       stroke="#fe5900"
       stroke-width="3"
       fill="#fff"
       id="path857" />
    <use
       xlink:href="#h"
       transform="matrix(1,0,0,1,1625,813.9990620547949) translate(21.768663194444446 40.578884548611114)"
       id="use859" />
    <path
       d="M980 388.25v96.2a12 12 0 0 0 12 12h576a12 12 0 0 1 12 12v77.08"
       stroke="#3a414a"
       stroke-width="3"
       fill="none"
       id="path861" />
    <path
       d="M981.5 388.3h-3v-1.55h3z"
       stroke="#3a414a"
       stroke-width=".05"
       fill="#3a414a"
       id="path863" />
    <path
       d="M1580 601.3l-4.64-14.27h9.28z"
       stroke="#3a414a"
       stroke-width="3"
       fill="#3a414a"
       id="path865" />
    <path
       d="M830.76 588a8 8 0 0 1 8-8h224a8 8 0 0 1 8 8v60.93a8 8 0 0 1-8 8h-224a8 8 0 0 1-8-8z"
       fill="#fff"
       fill-opacity="0"
       id="path867" />
    <path
       d="M832.26 588c0 .83-.67 1.5-1.5 1.5s-1.5-.67-1.5-1.5.67-1.5 1.5-1.5 1.5.67 1.5 1.5zm6.75-7.9c0 .83-.66 1.5-1.5 1.5-.82 0-1.5-.67-1.5-1.5s.68-1.5 1.5-1.5c.84 0 1.5.67 1.5 1.5zm11.86 0c0 .82-.67 1.5-1.5 1.5s-1.5-.68-1.5-1.5c0-.84.67-1.5 1.5-1.5s1.5.66 1.5 1.5zm11.86 0c0 .82-.67 1.5-1.5 1.5s-1.5-.68-1.5-1.5c0-.84.67-1.5 1.5-1.5s1.5.66 1.5 1.5zm11.85-.02c0 .83-.67 1.5-1.5 1.5s-1.5-.67-1.5-1.5.67-1.5 1.5-1.5 1.5.67 1.5 1.5zm11.86 0c0 .83-.67 1.5-1.5 1.5s-1.5-.67-1.5-1.5.67-1.5 1.5-1.5 1.5.67 1.5 1.5zm11.85 0c0 .82-.67 1.5-1.5 1.5-.82 0-1.5-.68-1.5-1.5 0-.84.68-1.5 1.5-1.5.83 0 1.5.66 1.5 1.5zm11.86 0c0 .82-.67 1.5-1.5 1.5s-1.5-.68-1.5-1.5c0-.84.67-1.5 1.5-1.5s1.5.66 1.5 1.5zm11.85-.02c0 .83-.68 1.5-1.5 1.5-.83 0-1.5-.67-1.5-1.5s.67-1.5 1.5-1.5c.82 0 1.5.67 1.5 1.5zm11.85 0c0 .83-.67 1.5-1.5 1.5s-1.5-.67-1.5-1.5.67-1.5 1.5-1.5 1.5.67 1.5 1.5zm11.85 0c0 .82-.67 1.5-1.5 1.5-.82 0-1.5-.68-1.5-1.5 0-.84.68-1.5 1.5-1.5.83 0 1.5.66 1.5 1.5zm11.86 0c0 .82-.67 1.5-1.5 1.5s-1.5-.68-1.5-1.5c0-.84.67-1.5 1.5-1.5s1.5.66 1.5 1.5zm11.86-.02c0 .83-.68 1.5-1.5 1.5-.83 0-1.5-.67-1.5-1.5s.67-1.5 1.5-1.5c.82 0 1.5.67 1.5 1.5zm11.85 0c0 .82-.67 1.5-1.5 1.5s-1.5-.68-1.5-1.5c0-.83.67-1.5 1.5-1.5s1.5.67 1.5 1.5zm11.86 0c0 .82-.68 1.5-1.5 1.5-.83 0-1.5-.68-1.5-1.5 0-.84.67-1.5 1.5-1.5.82 0 1.5.66 1.5 1.5zm11.85 0c0 .8-.67 1.5-1.5 1.5s-1.5-.7-1.5-1.5c0-.84.67-1.5 1.5-1.5s1.5.66 1.5 1.5zm11.86-.02c0 .83-.67 1.5-1.5 1.5s-1.5-.67-1.5-1.5.67-1.5 1.5-1.5 1.5.67 1.5 1.5zm11.85 0c0 .82-.68 1.5-1.5 1.5-.84 0-1.5-.68-1.5-1.5 0-.83.66-1.5 1.5-1.5.82 0 1.5.67 1.5 1.5zm11.85 0c0 .82-.67 1.5-1.5 1.5s-1.5-.68-1.5-1.5c0-.84.67-1.5 1.5-1.5s1.5.66 1.5 1.5zm11.85 0c0 .8-.67 1.5-1.5 1.5s-1.5-.7-1.5-1.5c0-.84.67-1.5 1.5-1.5s1.5.66 1.5 1.5zm11.86-.02c0 .83-.67 1.5-1.5 1.5s-1.5-.67-1.5-1.5.67-1.5 1.5-1.5 1.5.67 1.5 1.5zm7.9 6.75c0 .83-.67 1.5-1.5 1.5s-1.5-.67-1.5-1.5.67-1.5 1.5-1.5 1.5.67 1.5 1.5zm.02 12.44c0 .8-.67 1.5-1.5 1.5s-1.5-.7-1.5-1.5c0-.84.67-1.5 1.5-1.5s1.5.66 1.5 1.5zm.02 12.42c0 .83-.67 1.5-1.5 1.5s-1.5-.67-1.5-1.5.67-1.5 1.5-1.5 1.5.67 1.5 1.5zm.02 12.44c0 .83-.67 1.5-1.5 1.5s-1.5-.67-1.5-1.5.67-1.5 1.5-1.5 1.5.67 1.5 1.5zm.02 12.44c0 .82-.67 1.5-1.5 1.5s-1.5-.68-1.5-1.5c0-.83.67-1.5 1.5-1.5s1.5.67 1.5 1.5zm.02 12.43c0 .83-.67 1.5-1.5 1.5s-1.5-.67-1.5-1.5.67-1.5 1.5-1.5 1.5.67 1.5 1.5zm-6.75 7.9c0 .83-.66 1.5-1.5 1.5-.82 0-1.5-.67-1.5-1.5 0-.82.68-1.5 1.5-1.5.84 0 1.5.68 1.5 1.5zm-11.85 0c0 .84-.67 1.5-1.5 1.5-.82 0-1.5-.66-1.5-1.5 0-.82.68-1.5 1.5-1.5.83 0 1.5.68 1.5 1.5zm-11.85.02c0 .82-.67 1.5-1.5 1.5s-1.5-.68-1.5-1.5c0-.83.67-1.5 1.5-1.5s1.5.67 1.5 1.5zm-11.86 0c0 .83-.67 1.5-1.5 1.5-.82 0-1.5-.67-1.5-1.5s.68-1.5 1.5-1.5c.83 0 1.5.67 1.5 1.5zm-11.85 0c0 .83-.68 1.5-1.5 1.5-.84 0-1.5-.67-1.5-1.5 0-.82.66-1.5 1.5-1.5.82 0 1.5.68 1.5 1.5zm-11.87 0c0 .84-.67 1.5-1.5 1.5s-1.5-.66-1.5-1.5c0-.82.67-1.5 1.5-1.5s1.5.68 1.5 1.5zm-11.85.02c0 .82-.67 1.5-1.5 1.5s-1.5-.68-1.5-1.5c0-.83.67-1.5 1.5-1.5s1.5.67 1.5 1.5zm-11.86 0c0 .83-.67 1.5-1.5 1.5s-1.5-.67-1.5-1.5.67-1.5 1.5-1.5 1.5.67 1.5 1.5zm-11.85 0c0 .83-.67 1.5-1.5 1.5s-1.5-.67-1.5-1.5c0-.82.67-1.5 1.5-1.5s1.5.68 1.5 1.5zm-11.86 0c0 .84-.66 1.5-1.5 1.5-.82 0-1.5-.66-1.5-1.5 0-.82.68-1.5 1.5-1.5.84 0 1.5.68 1.5 1.5zm-11.84.02c0 .82-.68 1.5-1.5 1.5-.83 0-1.5-.68-1.5-1.5 0-.84.67-1.5 1.5-1.5.82 0 1.5.66 1.5 1.5zm-11.86 0c0 .82-.67 1.5-1.5 1.5s-1.5-.68-1.5-1.5c0-.84.67-1.5 1.5-1.5s1.5.66 1.5 1.5zm-11.85 0c0 .83-.68 1.5-1.5 1.5-.83 0-1.5-.67-1.5-1.5s.67-1.5 1.5-1.5c.82 0 1.5.67 1.5 1.5zm-11.86 0c0 .83-.68 1.5-1.5 1.5-.84 0-1.5-.67-1.5-1.5s.66-1.5 1.5-1.5c.82 0 1.5.67 1.5 1.5zm-11.87 0c0 .84-.67 1.5-1.5 1.5-.82 0-1.5-.66-1.5-1.5 0-.82.68-1.5 1.5-1.5.83 0 1.5.68 1.5 1.5zm-11.85 0c0 .84-.67 1.5-1.5 1.5s-1.5-.66-1.5-1.5c0-.82.67-1.5 1.5-1.5s1.5.68 1.5 1.5zm-11.86.02c0 .83-.67 1.5-1.5 1.5-.82 0-1.5-.67-1.5-1.5s.68-1.5 1.5-1.5c.83 0 1.5.67 1.5 1.5zm-11.85 0c0 .83-.67 1.5-1.5 1.5s-1.5-.67-1.5-1.5.67-1.5 1.5-1.5 1.5.67 1.5 1.5zm-11.86 0c0 .84-.66 1.5-1.5 1.5-.8 0-1.5-.66-1.5-1.5 0-.82.7-1.5 1.5-1.5.84 0 1.5.68 1.5 1.5zm-11.84 0c0 .84-.67 1.5-1.5 1.5s-1.5-.66-1.5-1.5c0-.82.67-1.5 1.5-1.5s1.5.68 1.5 1.5zm-7.9-6.74c0 .83-.67 1.5-1.5 1.5s-1.5-.67-1.5-1.5c0-.82.67-1.5 1.5-1.5s1.5.68 1.5 1.5zm-.02-12.43c0 .83-.67 1.5-1.5 1.5s-1.5-.67-1.5-1.5.67-1.5 1.5-1.5 1.5.67 1.5 1.5zm-.02-12.44c0 .84-.67 1.5-1.5 1.5s-1.5-.66-1.5-1.5c0-.82.67-1.5 1.5-1.5s1.5.68 1.5 1.5zm-.02-12.43c0 .83-.67 1.5-1.5 1.5s-1.5-.67-1.5-1.5c0-.82.67-1.5 1.5-1.5s1.5.68 1.5 1.5zm-.02-12.43c0 .83-.67 1.5-1.5 1.5s-1.5-.67-1.5-1.5.67-1.5 1.5-1.5 1.5.67 1.5 1.5z"
       fill-opacity="0"
       id="path869" />
    <use
       xlink:href="#i"
       transform="matrix(1,0,0,1,835.7582798472891,585) translate(40.852050781250114 48.887912326388864)"
       id="use871" />
    <use
       xlink:href="#j"
       transform="matrix(1,0,0,1,835.7582798472891,585) translate(106.62516276041669 48.887912326388864)"
       id="use873" />
    <use
       xlink:href="#k"
       transform="matrix(1,0,0,1,835.7582798472891,585) translate(172.39827473958326 48.887912326388864)"
       id="use875" />
    <path
       d="M980 388.25v96.2a12 12 0 0 1-12 12H672a12 12 0 0 0-12 12v77.08"
       stroke="#3a414a"
       stroke-width="3"
       fill="none"
       id="path877" />
    <path
       d="M981.5 388.3h-3v-1.55h3z"
       stroke="#3a414a"
       stroke-width=".05"
       fill="#3a414a"
       id="path879" />
    <path
       d="M660 601.3l-4.64-14.27h9.28z"
       stroke="#3a414a"
       stroke-width="3"
       fill="#3a414a"
       id="path881" />
    <path
       d="M980 388.25v96.2a12 12 0 0 0 12 12h216a12 12 0 0 1 12 12v77.08"
       stroke="#3a414a"
       stroke-width="3"
       fill="none"
       id="path883" />
    <path
       d="M981.5 388.3h-3v-1.55h3z"
       stroke="#3a414a"
       stroke-width=".05"
       fill="#3a414a"
       id="path885" />
    <path
       d="M1220 601.3l-4.64-14.27h9.28z"
       stroke="#3a414a"
       stroke-width="3"
       fill="#3a414a"
       id="path887" />
    <path
       d="M320 690.65v45.75a12 12 0 0 1-12 12h-63.44a12 12 0 0 0-12 12v26.64"
       stroke="#3a414a"
       stroke-width="3"
       fill="none"
       id="path889" />
    <path
       d="M321.5 690.7h-3v-1.55h3z"
       stroke="#3a414a"
       stroke-width=".05"
       fill="#3a414a"
       id="path891" />
    <path
       d="M232.56 802.8l-4.64-14.26h9.27z"
       stroke="#3a414a"
       stroke-width="3"
       fill="#3a414a"
       id="path893" />
    <path
       d="M320 690.65v45.72a12 12 0 0 0 12 12h53.38a12 12 0 0 1 12 12v26.6"
       stroke="#3a414a"
       stroke-width="3"
       fill="none"
       id="path895" />
    <path
       d="M321.5 690.7h-3v-1.55h3z"
       stroke="#3a414a"
       stroke-width=".05"
       fill="#3a414a"
       id="path897" />
    <path
       d="M397.38 802.74l-4.64-14.27h9.28z"
       stroke="#3a414a"
       stroke-width="3"
       fill="#3a414a"
       id="path899" />
    <path
       d="M660 690.65v46.68a12 12 0 0 1-12 12h-63.45a12 12 0 0 0-12 12v27.56"
       stroke="#3a414a"
       stroke-width="3"
       fill="none"
       id="path901" />
    <path
       d="M661.5 690.7h-3v-1.55h3z"
       stroke="#3a414a"
       stroke-width=".05"
       fill="#3a414a"
       id="path903" />
    <path
       d="M572.55 804.66l-4.63-14.27h9.27z"
       stroke="#3a414a"
       stroke-width="3"
       fill="#3a414a"
       id="path905" />
    <path
       d="M660 690.65v45.72a12 12 0 0 0 12 12h53.38a12 12 0 0 1 12 12v26.6"
       stroke="#3a414a"
       stroke-width="3"
       fill="none"
       id="path907" />
    <path
       d="M661.5 690.7h-3v-1.55h3z"
       stroke="#3a414a"
       stroke-width=".05"
       fill="#3a414a"
       id="path909" />
    <path
       d="M737.38 802.74l-4.64-14.27h9.28z"
       stroke="#3a414a"
       stroke-width="3"
       fill="#3a414a"
       id="path911" />
    <path
       d="M1220 690.65v45.68a12 12 0 0 1-12 12h-55.95a12 12 0 0 0-12 12v26.55"
       stroke="#3a414a"
       stroke-width="3"
       fill="none"
       id="path913" />
    <path
       d="M1221.5 690.7h-3v-1.55h3z"
       stroke="#3a414a"
       stroke-width=".05"
       fill="#3a414a"
       id="path915" />
    <path
       d="M1140.05 802.64l-4.64-14.26h9.28z"
       stroke="#3a414a"
       stroke-width="3"
       fill="#3a414a"
       id="path917" />
    <path
       d="M1220 690.65v45.68a12 12 0 0 0 12 12h56a12 12 0 0 1 12 12v26.55"
       stroke="#3a414a"
       stroke-width="3"
       fill="none"
       id="path919" />
    <path
       d="M1221.5 690.7h-3v-1.55h3z"
       stroke="#3a414a"
       stroke-width=".05"
       fill="#3a414a"
       id="path921" />
    <path
       d="M1300 802.64l-4.64-14.26h9.28z"
       stroke="#3a414a"
       stroke-width="3"
       fill="#3a414a"
       id="path923" />
    <path
       d="M1580 690.65v45.68a12 12 0 0 1-12 12h-56a12 12 0 0 0-12 12v26.55"
       stroke="#3a414a"
       stroke-width="3"
       fill="none"
       id="path925" />
    <path
       d="M1581.5 690.7h-3v-1.55h3z"
       stroke="#3a414a"
       stroke-width=".05"
       fill="#3a414a"
       id="path927" />
    <path
       d="M1500 802.64l-4.64-14.26h9.28z"
       stroke="#3a414a"
       stroke-width="3"
       fill="#3a414a"
       id="path929" />
    <path
       d="M1580 690.65v45.68a12 12 0 0 0 12 12h56a12 12 0 0 1 12 12v26.55"
       stroke="#3a414a"
       stroke-width="3"
       fill="none"
       id="path931" />
    <path
       d="M1581.5 690.7h-3v-1.55h3z"
       stroke="#3a414a"
       stroke-width=".05"
       fill="#3a414a"
       id="path933" />
    <path
       d="M1660 802.64l-4.64-14.26h9.28z"
       stroke="#3a414a"
       stroke-width="3"
       fill="#3a414a"
       id="path935" />
    <path
       d="M20 761.83a8 8 0 0 1 8-8h124a8 8 0 0 1 8 8v97.6a8 8 0 0 1-8 8H28a8 8 0 0 1-8-8z"
       fill="none"
       id="path937" />
    <path
       d="M160 867.44c-5.52 0-10-4.48-10-10v-36.8c0-5.53-4.48-10-10-10 5.52 0 10-4.48 10-10v-36.8c0-5.53 4.48-10 10-10"
       stroke="#3a414a"
       stroke-width="3"
       fill="none"
       id="path939" />
    <use
       xlink:href="#l"
       transform="matrix(1,0,0,1,25,758.832395388128) translate(-7.311143663194429 58.191948784722214)"
       id="use941" />
    <path
       d="M80 546.47a8 8 0 0 1 8-8h64a8 8 0 0 1 8 8v144a8 8 0 0 1-8 8H88a8 8 0 0 1-8-8z"
       fill="none"
       id="path943" />
    <path
       d="M160 698.47c-5.52 0-10-4.48-10-10v-60c0-5.53-4.48-10-10-10 5.52 0 10-4.48 10-10v-60c0-5.53 4.48-10 10-10"
       stroke="#3a414a"
       stroke-width="3"
       fill="none"
       id="path945" />
    <g
       id="g951">
      <use
         xlink:href="#m"
         transform="matrix(1,0,0,1,85,543.4666666666666) translate(-13.606391059027771 70.068359375)"
         id="use947" />
      <use
         xlink:href="#n"
         transform="matrix(1,0,0,1,85,543.4666666666666) translate(-15.677680121527771 92.31553819444444)"
         id="use949" />
    </g>
    <defs
       id="defs1135">
      <path
         fill="#fff"
         d="M750-1295c-235 0-357 269-357 551 0 242 64 406 189 495 115 82 270 77 380-7v-383H663v-213h557v693C1004 37 655 95 402-79 224-202 101-447 102-744s130-540 310-667c233-164 595-116 777 70l-135 170c-93-83-195-124-304-124"
         id="o" />
      <path
         fill="#fff"
         d="M94-548c0-302 191-568 483-568 311 0 493 270 482 633H370c7 207 93 311 256 311 93 0 196-46 308-137l103 144C907-40 760 22 595 22 293 22 94-237 94-548zm282-120h403c-18-170-85-255-202-255s-184 85-201 255"
         id="p" />
      <path
         fill="#fff"
         d="M783-1116c173 0 283 89 283 264V0H803v-754c0-92-46-138-139-138-73 0-151 30-233 91V0H168v-1094h263v93c117-77 234-115 352-115"
         id="q" />
      <g
         id="a">
        <use
           transform="matrix(0.01204427083333333,0,0,0.01204427083333333,0,0)"
           xlink:href="#o"
           id="use956" />
        <use
           transform="matrix(0.01204427083333333,0,0,0.01204427083333333,16.247721354166664,0)"
           xlink:href="#p"
           id="use958" />
        <use
           transform="matrix(0.01204427083333333,0,0,0.01204427083333333,30.134765624999993,0)"
           xlink:href="#q"
           id="use960" />
        <use
           transform="matrix(0.01204427083333333,0,0,0.01204427083333333,44.82877604166666,0)"
           xlink:href="#p"
           id="use962" />
      </g>
      <path
         fill="#fff"
         d="M1064-219V0H205v-1489h859v219H478v389h485v219H478v443h586"
         id="r" />
      <path
         fill="#fff"
         d="M1037-1094L712-596 1113 0H816L559-408 303 0H25l393-596-336-498h296l191 307 190-307h278"
         id="s" />
      <path
         fill="#fff"
         d="M690-1116c279 0 423 232 423 527 0 261-67 439-196 539C782 54 551 41 431-69v481H168v-1506h253v93c71-77 160-115 269-115zM431-810v545c64 56 127 84 189 84 145 0 218-134 218-402 0-214-68-321-203-321-71 0-139 31-204 94"
         id="t" />
      <path
         fill="#fff"
         d="M431-770V0H168v-1094h263v110c156-133 232-175 396-74l-84 220c-129-52-218-25-312 68"
         id="u" />
      <path
         fill="#fff"
         d="M925-326c0 213-197 348-437 348C341 22 194-16 47-93l93-183c121 69 236 103 345 103s164-42 164-127c0-41-24-75-72-100-19-10-61-25-126-44-165-49-270-109-315-179-27-41-40-94-40-158 0-210 193-335 432-335 111 0 229 34 354 103l-83 176c-101-56-191-84-271-84-107 0-161 40-161 121 0 37 23 66 70 89 16 12 285 99 327 123 105 60 161 144 161 262"
         id="v" />
      <path
         fill="#fff"
         d="M431-1094V0H168v-1094h263zm0-190H168v-296h263v296"
         id="w" />
      <path
         fill="#fff"
         d="M578-1116c196 0 337 93 423 279 40 87 60 183 60 290 0 225-77 390-230 494-74 50-158 75-253 75-197 0-338-93-424-279-40-87-60-183-60-290 0-226 77-391 231-495 73-49 158-74 253-74zm0 194c-139 0-208 125-208 375s69 375 208 375c138 0 207-125 207-375s-69-375-207-375"
         id="x" />
      <g
         id="b">
        <use
           transform="matrix(0.01204427083333333,0,0,0.01204427083333333,0,0)"
           xlink:href="#r"
           id="use972" />
        <use
           transform="matrix(0.01204427083333333,0,0,0.01204427083333333,14.055664062499996,0)"
           xlink:href="#s"
           id="use974" />
        <use
           transform="matrix(0.01204427083333333,0,0,0.01204427083333333,27.762044270833325,0)"
           xlink:href="#t"
           id="use976" />
        <use
           transform="matrix(0.01204427083333333,0,0,0.01204427083333333,42.29947916666666,0)"
           xlink:href="#u"
           id="use978" />
        <use
           transform="matrix(0.01204427083333333,0,0,0.01204427083333333,51.65787760416666,0)"
           xlink:href="#p"
           id="use980" />
        <use
           transform="matrix(0.01204427083333333,0,0,0.01204427083333333,65.54492187499999,0)"
           xlink:href="#v"
           id="use982" />
        <use
           transform="matrix(0.01204427083333333,0,0,0.01204427083333333,77.63736979166666,0)"
           xlink:href="#v"
           id="use984" />
        <use
           transform="matrix(0.01204427083333333,0,0,0.01204427083333333,89.72981770833331,0)"
           xlink:href="#w"
           id="use986" />
        <use
           transform="matrix(0.01204427083333333,0,0,0.01204427083333333,96.94433593749999,0)"
           xlink:href="#x"
           id="use988" />
        <use
           transform="matrix(0.01204427083333333,0,0,0.01204427083333333,110.85546875,0)"
           xlink:href="#q"
           id="use990" />
      </g>
      <path
         fill="#333"
         d="M1019-219V0H205v-1489h273v1270h541"
         id="y" />
      <path
         fill="#333"
         d="M431-1094V0H168v-1094h263zm0-190H168v-296h263v296"
         id="z" />
      <path
         fill="#333"
         d="M452 0L25-1094h272l252 709 263-709h249L634 0H452"
         id="A" />
      <path
         fill="#333"
         d="M94-548c0-302 191-568 483-568 311 0 493 270 482 633H370c7 207 93 311 256 311 93 0 196-46 308-137l103 144C907-40 760 22 595 22 293 22 94-237 94-548zm282-120h403c-18-170-85-255-202-255s-184 85-201 255"
         id="B" />
      <path
         fill="#333"
         d="M431-770V0H168v-1094h263v110c156-133 232-175 396-74l-84 220c-129-52-218-25-312 68"
         id="C" />
      <g
         id="c">
        <use
           transform="matrix(0.010959201388888885,0,0,0.010959201388888885,0,0)"
           xlink:href="#y"
           id="use998" />
        <use
           transform="matrix(0.010959201388888885,0,0,0.010959201388888885,11.550998263888884,0)"
           xlink:href="#z"
           id="use1000" />
        <use
           transform="matrix(0.010959201388888885,0,0,0.010959201388888885,18.115559895833325,0)"
           xlink:href="#A"
           id="use1002" />
        <use
           transform="matrix(0.010959201388888885,0,0,0.010959201388888885,30.017252604166654,0)"
           xlink:href="#B"
           id="use1004" />
        <use
           transform="matrix(0.010959201388888885,0,0,0.010959201388888885,42.653211805555536,0)"
           xlink:href="#C"
           id="use1006" />
      </g>
      <path
         fill="#333"
         d="M205-1489h426c365 0 548 153 548 458S998-573 635-573H478V0H205v-1489zm273 219v478h161c177 0 265-80 265-239s-88-239-265-239H478"
         id="D" />
      <path
         fill="#333"
         d="M711-687c-7-170-35-229-188-230-74 0-147 18-220 53l-88-179c111-51 229-76 353-76 303 0 405 148 405 459V0H717v-81C651-13 566 21 461 21 236 21 81-120 81-346c0-158 85-260 254-311 103-31 245-40 376-30zM326-329c0 101 84 155 189 155 91 0 157-36 196-109v-226c-23-4-49-6-78-6-205 0-307 62-307 186"
         id="E" />
      <path
         fill="#333"
         d="M783-1116c173 0 283 89 283 264V0H803v-754c0-92-46-138-139-138-73 0-151 30-233 91V0H168v-1094h263v93c117-77 234-115 352-115"
         id="F" />
      <path
         fill="#333"
         d="M94-547c0-294 207-569 494-569 131 0 260 50 386 150L872-811c-96-74-188-111-277-112-163-2-225 186-225 376 0 251 82 377 246 377 81 0 168-36 260-107l103 137C862-32 733 22 593 22 292 22 94-208 94-547"
         id="G" />
      <path
         fill="#333"
         d="M925-326c0 213-197 348-437 348C341 22 194-16 47-93l93-183c121 69 236 103 345 103s164-42 164-127c0-41-24-75-72-100-19-10-61-25-126-44-165-49-270-109-315-179-27-41-40-94-40-158 0-210 193-335 432-335 111 0 229 34 354 103l-83 176c-101-56-191-84-271-84-107 0-161 40-161 121 0 37 23 66 70 89 16 12 285 99 327 123 105 60 161 144 161 262"
         id="H" />
      <g
         id="d">
        <use
           transform="matrix(0.010959201388888886,0,0,0.010959201388888886,0,0)"
           xlink:href="#D"
           id="use1014" />
        <use
           transform="matrix(0.010959201388888886,0,0,0.010959201388888886,12.69075520833333,0)"
           xlink:href="#E"
           id="use1016" />
        <use
           transform="matrix(0.010959201388888886,0,0,0.010959201388888886,25.041775173611104,0)"
           xlink:href="#F"
           id="use1018" />
        <use
           transform="matrix(0.010959201388888886,0,0,0.010959201388888886,38.41200086805555,0)"
           xlink:href="#G"
           id="use1020" />
        <use
           transform="matrix(0.010959201388888886,0,0,0.010959201388888886,49.141059027777764,0)"
           xlink:href="#C"
           id="use1022" />
        <use
           transform="matrix(0.010959201388888886,0,0,0.010959201388888886,57.65635850694443,0)"
           xlink:href="#B"
           id="use1024" />
        <use
           transform="matrix(0.010959201388888886,0,0,0.010959201388888886,70.29231770833331,0)"
           xlink:href="#E"
           id="use1026" />
        <use
           transform="matrix(0.010959201388888886,0,0,0.010959201388888886,82.64333767361109,0)"
           xlink:href="#H"
           id="use1028" />
      </g>
      <path
         fill="#333"
         d="M919-805c192 25 318 168 317 382 0 282-182 423-545 423H205v-1489h394c214 0 356 50 427 149 39 55 59 132 59 229 0 134-55 236-166 306zM695-219c182-5 263-51 263-220 0-149-88-223-263-223H478v443h217zM478-881h163c121 0 181-69 181-207 0-121-70-182-211-182H478v389"
         id="I" />
      <path
         fill="#333"
         d="M503-384c-2 129 8 204 107 204 41 0 91-13 150-38l66 171C737-1 639 22 533 22c-230-2-293-122-293-358v-559H42v-199h198v-395h263v395h265v199H503v511"
         id="J" />
      <g
         id="e">
        <use
           transform="matrix(0.010959201388888886,0,0,0.010959201388888886,0,0)"
           xlink:href="#I"
           id="use1033" />
        <use
           transform="matrix(0.010959201388888886,0,0,0.010959201388888886,14.630533854166663,0)"
           xlink:href="#C"
           id="use1035" />
        <use
           transform="matrix(0.010959201388888886,0,0,0.010959201388888886,23.14583333333333,0)"
           xlink:href="#B"
           id="use1037" />
        <use
           transform="matrix(0.010959201388888886,0,0,0.010959201388888886,35.781792534722214,0)"
           xlink:href="#E"
           id="use1039" />
        <use
           transform="matrix(0.010959201388888886,0,0,0.010959201388888886,48.132812499999986,0)"
           xlink:href="#H"
           id="use1041" />
        <use
           transform="matrix(0.010959201388888886,0,0,0.010959201388888886,59.13585069444443,0)"
           xlink:href="#J"
           id="use1043" />
      </g>
      <path
         fill="#333"
         d="M437 22c-177 0-283-91-283-265v-851h263v755c0 91 46 137 139 137 75 0 152-32 233-95v-797h263V0H789v-93C670-16 552 22 437 22"
         id="K" />
      <path
         fill="#333"
         d="M1040 13c1 285-186 425-480 425-155 0-288-42-397-127l107-153c86 57 175 86 266 86 162 0 243-86 243-258v-81C700-18 607 20 498 20c-167 0-286-84-355-253-33-79-49-170-49-272 0-252 66-428 193-533 131-108 361-101 490 7v-64h263V13zM777-276v-551c-65-56-128-84-191-84-145 0-217 133-217 399 0 214 67 321 202 321 71 0 139-28 206-85"
         id="L" />
      <g
         id="f">
        <use
           transform="matrix(0.010959201388888886,0,0,0.010959201388888886,0,0)"
           xlink:href="#y"
           id="use1048" />
        <use
           transform="matrix(0.010959201388888886,0,0,0.010959201388888886,11.550998263888886,0)"
           xlink:href="#K"
           id="use1050" />
        <use
           transform="matrix(0.010959201388888886,0,0,0.010959201388888886,24.92122395833333,0)"
           xlink:href="#F"
           id="use1052" />
        <use
           transform="matrix(0.010959201388888886,0,0,0.010959201388888886,38.29144965277777,0)"
           xlink:href="#L"
           id="use1054" />
      </g>
      <path
         fill="#333"
         d="M495 0v-578L27-1489h291l317 627 320-627h279L767-578V0H495"
         id="M" />
      <g
         id="g">
        <use
           transform="matrix(0.009874131944444444,0,0,0.009874131944444444,0,0)"
           xlink:href="#M"
           id="use1058" />
        <use
           transform="matrix(0.009874131944444444,0,0,0.009874131944444444,10.476453993055555,0)"
           xlink:href="#B"
           id="use1060" />
        <use
           transform="matrix(0.009874131944444444,0,0,0.009874131944444444,21.861328125,0)"
           xlink:href="#H"
           id="use1062" />
      </g>
      <path
         fill="#333"
         d="M205 0v-1489h295l553 1011v-1011h267V0h-290L472-1024V0H205"
         id="N" />
      <path
         fill="#333"
         d="M578-1116c196 0 337 93 423 279 40 87 60 183 60 290 0 225-77 390-230 494-74 50-158 75-253 75-197 0-338-93-424-279-40-87-60-183-60-290 0-226 77-391 231-495 73-49 158-74 253-74zm0 194c-139 0-208 125-208 375s69 375 208 375c138 0 207-125 207-375s-69-375-207-375"
         id="O" />
      <g
         id="h">
        <use
           transform="matrix(0.009874131944444444,0,0,0.009874131944444444,0,0)"
           xlink:href="#N"
           id="use1067" />
        <use
           transform="matrix(0.009874131944444444,0,0,0.009874131944444444,15.058051215277777,0)"
           xlink:href="#O"
           id="use1069" />
      </g>
      <path
         fill="#3a414a"
         d="M452 0H163v-278h289V0"
         id="P" />
      <use
         transform="matrix(0.027235243055555514,0,0,0.027235243055555514,0,0)"
         xlink:href="#P"
         id="i" />
      <use
         transform="matrix(0.027235243055555514,0,0,0.027235243055555514,0,0)"
         xlink:href="#P"
         id="j" />
      <use
         transform="matrix(0.027235243055555514,0,0,0.027235243055555514,0,0)"
         xlink:href="#P"
         id="k" />
      <path
         fill="#3a414a"
         d="M582-1489l334 833 329-833h295L1695 0h-278l-102-1047-287 738H798l-298-738L397 0H130l154-1489h298"
         id="Q" />
      <path
         fill="#3a414a"
         d="M94-548c0-302 191-568 483-568 311 0 493 270 482 633H370c7 207 93 311 256 311 93 0 196-46 308-137l103 144C907-40 760 22 595 22 293 22 94-237 94-548zm282-120h403c-18-170-85-255-202-255s-184 85-201 255"
         id="R" />
      <path
         fill="#3a414a"
         d="M503-384c-2 129 8 204 107 204 41 0 91-13 150-38l66 171C737-1 639 22 533 22c-230-2-293-122-293-358v-559H42v-199h198v-395h263v395h265v199H503v511"
         id="S" />
      <path
         fill="#3a414a"
         d="M711-687c-7-170-35-229-188-230-74 0-147 18-220 53l-88-179c111-51 229-76 353-76 303 0 405 148 405 459V0H717v-81C651-13 566 21 461 21 236 21 81-120 81-346c0-158 85-260 254-311 103-31 245-40 376-30zM326-329c0 101 84 155 189 155 91 0 157-36 196-109v-226c-23-4-49-6-78-6-205 0-307 62-307 186"
         id="T" />
      <path
         fill="#3a414a"
         d="M925-326c0 213-197 348-437 348C341 22 194-16 47-93l93-183c121 69 236 103 345 103s164-42 164-127c0-41-24-75-72-100-19-10-61-25-126-44-165-49-270-109-315-179-27-41-40-94-40-158 0-210 193-335 432-335 111 0 229 34 354 103l-83 176c-101-56-191-84-271-84-107 0-161 40-161 121 0 37 23 66 70 89 16 12 285 99 327 123 105 60 161 144 161 262"
         id="U" />
      <path
         fill="#3a414a"
         d="M431-1094V0H168v-1094h263zm0-190H168v-296h263v296"
         id="V" />
      <g
         id="l">
        <use
           transform="matrix(0.010959201388888886,0,0,0.010959201388888886,0,0)"
           xlink:href="#Q"
           id="use1082" />
        <use
           transform="matrix(0.010959201388888886,0,0,0.010959201388888886,20.000542534722218,0)"
           xlink:href="#R"
           id="use1084" />
        <use
           transform="matrix(0.010959201388888886,0,0,0.010959201388888886,32.6365017361111,0)"
           xlink:href="#S"
           id="use1086" />
        <use
           transform="matrix(0.010959201388888886,0,0,0.010959201388888886,41.49153645833332,0)"
           xlink:href="#T"
           id="use1088" />
        <use
           transform="matrix(0.010959201388888886,0,0,0.010959201388888886,53.8425564236111,0)"
           xlink:href="#U"
           id="use1090" />
        <use
           transform="matrix(0.010959201388888886,0,0,0.010959201388888886,64.84559461805554,0)"
           xlink:href="#S"
           id="use1092" />
        <use
           transform="matrix(0.010959201388888886,0,0,0.010959201388888886,73.70062934027776,0)"
           xlink:href="#T"
           id="use1094" />
        <use
           transform="matrix(0.010959201388888886,0,0,0.010959201388888886,86.05164930555553,0)"
           xlink:href="#U"
           id="use1096" />
        <use
           transform="matrix(0.010959201388888886,0,0,0.010959201388888886,97.05468749999997,0)"
           xlink:href="#V"
           id="use1098" />
        <use
           transform="matrix(0.010959201388888886,0,0,0.010959201388888886,103.61924913194441,0)"
           xlink:href="#U"
           id="use1100" />
      </g>
      <path
         fill="#3a414a"
         d="M45-1270v-219h1063v219H713V0H440v-1270H45"
         id="W" />
      <path
         fill="#3a414a"
         d="M437 22c-177 0-283-91-283-265v-851h263v755c0 91 46 137 139 137 75 0 152-32 233-95v-797h263V0H789v-93C670-16 552 22 437 22"
         id="X" />
      <g
         id="m">
        <use
           transform="matrix(0.010959201388888886,0,0,0.010959201388888886,0,0)"
           xlink:href="#W"
           id="use1105" />
        <use
           transform="matrix(0.010959201388888886,0,0,0.010959201388888886,12.635959201388886,0)"
           xlink:href="#V"
           id="use1107" />
        <use
           transform="matrix(0.010959201388888886,0,0,0.010959201388888886,19.20052083333333,0)"
           xlink:href="#U"
           id="use1109" />
        <use
           transform="matrix(0.010959201388888886,0,0,0.010959201388888886,30.20355902777777,0)"
           xlink:href="#U"
           id="use1111" />
        <use
           transform="matrix(0.010959201388888886,0,0,0.010959201388888886,41.206597222222214,0)"
           xlink:href="#X"
           id="use1113" />
        <use
           transform="matrix(0.010959201388888886,0,0,0.010959201388888886,54.57682291666666,0)"
           xlink:href="#R"
           id="use1115" />
      </g>
      <path
         fill="#3a414a"
         d="M183-342c139 97 272 144 401 141 177-5 266-73 266-205 0-83-46-143-137-186-66-31-351-127-423-171-120-74-184-178-184-324 0-181 82-309 250-380 237-100 547-49 724 90l-107 195c-117-70-238-105-361-105-149 0-223 63-223 189 0 81 64 140 191 179 19 5 54 16 105 32 192 62 321 144 388 246 41 63 61 141 61 234 0 173-87 302-265 376C603 79 286 20 77-135"
         id="Y" />
      <path
         fill="#3a414a"
         d="M578-1116c196 0 337 93 423 279 40 87 60 183 60 290 0 225-77 390-230 494-74 50-158 75-253 75-197 0-338-93-424-279-40-87-60-183-60-290 0-226 77-391 231-495 73-49 158-74 253-74zm0 194c-139 0-208 125-208 375s69 375 208 375c138 0 207-125 207-375s-69-375-207-375"
         id="Z" />
      <path
         fill="#3a414a"
         d="M431-770V0H168v-1094h263v110c156-133 232-175 396-74l-84 220c-129-52-218-25-312 68"
         id="aa" />
      <path
         fill="#3a414a"
         d="M94-547c0-294 207-569 494-569 131 0 260 50 386 150L872-811c-96-74-188-111-277-112-163-2-225 186-225 376 0 251 82 377 246 377 81 0 168-36 260-107l103 137C862-32 733 22 593 22 292 22 94-208 94-547"
         id="ab" />
      <g
         id="n">
        <use
           transform="matrix(0.010959201388888886,0,0,0.010959201388888886,0,0)"
           xlink:href="#Y"
           id="use1122" />
        <use
           transform="matrix(0.010959201388888886,0,0,0.010959201388888886,13.446940104166664,0)"
           xlink:href="#Z"
           id="use1124" />
        <use
           transform="matrix(0.010959201388888886,0,0,0.010959201388888886,26.10481770833333,0)"
           xlink:href="#X"
           id="use1126" />
        <use
           transform="matrix(0.010959201388888886,0,0,0.010959201388888886,39.47504340277777,0)"
           xlink:href="#aa"
           id="use1128" />
        <use
           transform="matrix(0.010959201388888886,0,0,0.010959201388888886,47.990342881944436,0)"
           xlink:href="#ab"
           id="use1130" />
        <use
           transform="matrix(0.010959201388888886,0,0,0.010959201388888886,58.71940104166665,0)"
           xlink:href="#R"
           id="use1132" />
      </g>
    </defs>
  </g>
</svg>
